<svg xmlns="http://www.w3.org/2000/svg" width="18" height="18" viewBox="0 0 18 18" fill="none"><path d="M4.84125 14.25L1.5 16.875V3C1.5 2.80109 1.57902 2.61032 1.71967 2.46967C1.86032 2.32902 2.05109 2.25 2.25 2.25H15.75C15.9489 2.25 16.1397 2.32902 16.2803 2.46967C16.421 2.61032 16.5 2.80109 16.5 3V13.5C16.5 13.6989 16.421 13.8897 16.2803 14.0303C16.1397 14.171 15.9489 14.25 15.75 14.25H4.84125ZM8.46975 9.09075L6.6135 7.2345L5.553 8.29575L8.46975 11.2125L12.7125 6.96975L11.652 5.90925L8.46975 9.09075V9.09075Z" fill="url(#paint0_linear_1275_655)"></path><defs><linearGradient id="paint0_linear_1275_655" x1="4.06435" y1="16.875" x2="19.1776" y2="10.3694" gradientUnits="userSpaceOnUse"><stop stop-color="#44ADC5"></stop><stop offset="1" stop-color="#2F92F7"></stop></linearGradient></defs></svg>
