<svg width="20" height="20" viewBox="0 0 20 20" fill="none" xmlns="http://www.w3.org/2000/svg"><path d="M10.0001 1.66699C5.39592 1.66699 1.66675 5.39616 1.66675 10.0003C1.6658 11.7497 2.21576 13.455 3.2386 14.8742C4.26143 16.2935 5.7052 17.3546 7.36508 17.907C7.78175 17.9795 7.93758 17.7295 7.93758 17.5103C7.93758 17.3128 7.92675 16.657 7.92675 15.9587C5.83342 16.3445 5.29175 15.4487 5.12508 14.9795C5.03092 14.7395 4.62508 14.0003 4.27092 13.802C3.97925 13.6462 3.56258 13.2603 4.26008 13.2503C4.91675 13.2395 5.38508 13.8545 5.54175 14.1045C6.29175 15.3645 7.49008 15.0103 7.96842 14.792C8.04175 14.2503 8.26008 13.8862 8.50008 13.6778C6.64592 13.4695 4.70842 12.7503 4.70842 9.56283C4.70842 8.65616 5.03092 7.90699 5.56258 7.32283C5.47925 7.11449 5.18758 6.26033 5.64592 5.11449C5.64592 5.11449 6.34342 4.89616 7.93758 5.96949C8.61597 5.78121 9.31689 5.68645 10.0209 5.68783C10.7292 5.68783 11.4376 5.78116 12.1042 5.96866C13.6976 4.88533 14.3959 5.11533 14.3959 5.11533C14.8542 6.26116 14.5626 7.11533 14.4792 7.32366C15.0101 7.90699 15.3334 8.64616 15.3334 9.56283C15.3334 12.7612 13.3859 13.4695 11.5317 13.6778C11.8334 13.9378 12.0942 14.4378 12.0942 15.2195C12.0942 16.3337 12.0834 17.2295 12.0834 17.5112C12.0834 17.7295 12.2401 17.9895 12.6567 17.9062C14.3109 17.3477 15.7483 16.2845 16.7667 14.8663C17.785 13.4481 18.3329 11.7463 18.3334 10.0003C18.3334 5.39616 14.6042 1.66699 10.0001 1.66699Z" fill="#FFF"></path></svg>