<svg width="20" height="20" viewBox="0 0 20 20" fill="none" xmlns="http://www.w3.org/2000/svg"><path d="M17.9526 5.41467C18.3334 6.89967 18.3334 9.99967 18.3334 9.99967C18.3334 9.99967 18.3334 13.0997 17.9526 14.5847C17.7409 15.4055 17.1217 16.0513 16.3376 16.2697C14.9134 16.6663 10.0001 16.6663 10.0001 16.6663C10.0001 16.6663 5.08925 16.6663 3.66258 16.2697C2.87508 16.048 2.25675 15.403 2.04758 14.5847C1.66675 13.0997 1.66675 9.99967 1.66675 9.99967C1.66675 9.99967 1.66675 6.89967 2.04758 5.41467C2.25925 4.59384 2.87841 3.94801 3.66258 3.72967C5.08925 3.33301 10.0001 3.33301 10.0001 3.33301C10.0001 3.33301 14.9134 3.33301 16.3376 3.72967C17.1251 3.95134 17.7434 4.59634 17.9526 5.41467ZM8.33342 12.9163L13.3334 9.99967L8.33342 7.08301V12.9163Z" fill="#FFF"></path></svg>