<svg width="163" height="22" viewBox="0 0 163 44" fill="none" xmlns="http://www.w3.org/2000/svg">
<path d="M55.0859 34V10H64.5547C66.375 10 67.9258 10.3477 69.207 11.043C70.4883 11.7305 71.4648 12.6875 72.1367 13.9141C72.8164 15.1328 73.1563 16.5391 73.1563 18.1328C73.1563 19.7266 72.8125 21.1328 72.125 22.3516C71.4375 23.5703 70.4414 24.5195 69.1367 25.1992C67.8398 25.8789 66.2695 26.2187 64.4258 26.2187H58.3906V22.1523H63.6055C64.582 22.1523 65.3867 21.9844 66.0195 21.6484C66.6602 21.3047 67.1367 20.832 67.4492 20.2305C67.7695 19.6211 67.9297 18.9219 67.9297 18.1328C67.9297 17.3359 67.7695 16.6406 67.4492 16.0469C67.1367 15.4453 66.6602 14.9805 66.0195 14.6523C65.3789 14.3164 64.5664 14.1484 63.582 14.1484H60.1602V34H55.0859ZM81.0078 34.3398C79.8594 34.3398 78.8359 34.1406 77.9375 33.7422C77.0391 33.3359 76.3281 32.7383 75.8047 31.9492C75.2891 31.1523 75.0313 30.1602 75.0313 28.9727C75.0313 27.9727 75.2148 27.1328 75.582 26.4531C75.9492 25.7734 76.4492 25.2266 77.082 24.8125C77.7148 24.3984 78.4336 24.0859 79.2383 23.875C80.0508 23.6641 80.9023 23.5156 81.793 23.4297C82.8398 23.3203 83.6836 23.2187 84.3242 23.125C84.9648 23.0234 85.4297 22.875 85.7188 22.6797C86.0078 22.4844 86.1523 22.1953 86.1523 21.8125V21.7422C86.1523 21 85.918 20.4258 85.4492 20.0195C84.9883 19.6133 84.332 19.4102 83.4805 19.4102C82.582 19.4102 81.8672 19.6094 81.3359 20.0078C80.8047 20.3984 80.4531 20.8906 80.2813 21.4844L75.6641 21.1094C75.8984 20.0156 76.3594 19.0703 77.0469 18.2734C77.7344 17.4687 78.6211 16.8516 79.707 16.4219C80.8008 15.9844 82.0664 15.7656 83.5039 15.7656C84.5039 15.7656 85.4609 15.8828 86.375 16.1172C87.2969 16.3516 88.1133 16.7148 88.8242 17.207C89.543 17.6992 90.1094 18.332 90.5234 19.1055C90.9375 19.8711 91.1445 20.7891 91.1445 21.8594V34H86.4102V31.5039H86.2695C85.9805 32.0664 85.5938 32.5625 85.1094 32.9922C84.625 33.4141 84.043 33.7461 83.3633 33.9883C82.6836 34.2227 81.8984 34.3398 81.0078 34.3398ZM82.4375 30.8945C83.1719 30.8945 83.8203 30.75 84.3828 30.4609C84.9453 30.1641 85.3867 29.7656 85.707 29.2656C86.0273 28.7656 86.1875 28.1992 86.1875 27.5664V25.6563C86.0313 25.7578 85.8164 25.8516 85.543 25.9375C85.2773 26.0156 84.9766 26.0898 84.6406 26.1602C84.3047 26.2227 83.9688 26.2812 83.6328 26.3359C83.2969 26.3828 82.9922 26.4258 82.7188 26.4648C82.1328 26.5508 81.6211 26.6875 81.1836 26.875C80.7461 27.0625 80.4063 27.3164 80.1641 27.6367C79.9219 27.9492 79.8008 28.3398 79.8008 28.8086C79.8008 29.4883 80.0469 30.0078 80.5391 30.3672C81.0391 30.7187 81.6719 30.8945 82.4375 30.8945ZM95.0176 34V16H99.8574V19.1406H100.045C100.373 18.0234 100.924 17.1797 101.697 16.6094C102.471 16.0312 103.361 15.7422 104.369 15.7422C104.619 15.7422 104.889 15.7578 105.178 15.7891C105.467 15.8203 105.721 15.8633 105.939 15.918V20.3477C105.705 20.2773 105.381 20.2148 104.967 20.1602C104.553 20.1055 104.174 20.0781 103.83 20.0781C103.096 20.0781 102.439 20.2383 101.861 20.5586C101.291 20.8711 100.838 21.3086 100.502 21.8711C100.174 22.4336 100.01 23.082 100.01 23.8164V34H95.0176ZM115.815 34.3516C113.972 34.3516 112.386 33.9609 111.058 33.1797C109.737 32.3906 108.722 31.2969 108.011 29.8984C107.308 28.5 106.956 26.8906 106.956 25.0703C106.956 23.2266 107.312 21.6094 108.022 20.2187C108.741 18.8203 109.761 17.7305 111.081 16.9492C112.401 16.1602 113.972 15.7656 115.792 15.7656C117.362 15.7656 118.737 16.0508 119.917 16.6211C121.097 17.1914 122.03 17.9922 122.718 19.0234C123.405 20.0547 123.784 21.2656 123.854 22.6562H119.144C119.011 21.7578 118.659 21.0352 118.089 20.4883C117.526 19.9336 116.788 19.6562 115.874 19.6562C115.101 19.6562 114.425 19.8672 113.847 20.2891C113.276 20.7031 112.831 21.3086 112.511 22.1055C112.19 22.9023 112.03 23.8672 112.03 25C112.03 26.1484 112.187 27.125 112.499 27.9297C112.819 28.7344 113.269 29.3477 113.847 29.7695C114.425 30.1914 115.101 30.4023 115.874 30.4023C116.444 30.4023 116.956 30.2852 117.409 30.0508C117.87 29.8164 118.249 29.4766 118.546 29.0312C118.851 28.5781 119.05 28.0352 119.144 27.4023H123.854C123.776 28.7773 123.401 29.9883 122.729 31.0352C122.065 32.0742 121.147 32.8867 119.976 33.4727C118.804 34.0586 117.417 34.3516 115.815 34.3516ZM135.254 34.3516C133.402 34.3516 131.809 33.9766 130.473 33.2266C129.145 32.4687 128.121 31.3984 127.402 30.0156C126.684 28.625 126.324 26.9805 126.324 25.082C126.324 23.2305 126.684 21.6055 127.402 20.207C128.121 18.8086 129.133 17.7187 130.438 16.9375C131.75 16.1562 133.289 15.7656 135.055 15.7656C136.242 15.7656 137.348 15.957 138.371 16.3398C139.402 16.7148 140.301 17.2812 141.066 18.0391C141.84 18.7969 142.441 19.75 142.871 20.8984C143.301 22.0391 143.516 23.375 143.516 24.9062V26.2773H128.316V23.1836H138.816C138.816 22.4648 138.66 21.8281 138.348 21.2734C138.035 20.7187 137.602 20.2852 137.047 19.9727C136.5 19.6523 135.863 19.4922 135.137 19.4922C134.379 19.4922 133.707 19.668 133.121 20.0195C132.543 20.3633 132.09 20.8281 131.762 21.4141C131.434 21.9922 131.266 22.6367 131.258 23.3477V26.2891C131.258 27.1797 131.422 27.9492 131.75 28.5977C132.086 29.2461 132.559 29.7461 133.168 30.0977C133.777 30.4492 134.5 30.625 135.336 30.625C135.891 30.625 136.398 30.5469 136.859 30.3906C137.32 30.2344 137.715 30 138.043 29.6875C138.371 29.375 138.621 28.9922 138.793 28.5391L143.41 28.8438C143.176 29.9531 142.695 30.9219 141.969 31.75C141.25 32.5703 140.32 33.2109 139.18 33.6719C138.047 34.125 136.738 34.3516 135.254 34.3516ZM151.766 10V34H146.773V10H151.766Z" fill="#0D1117"/>
<path fill-rule="evenodd" clip-rule="evenodd" d="M32.0491 27.3209L16.2077 29.4306C15.1254 29.5748 14.0483 29.2565 13.2356 28.5523L9.9576 25.7121L4.5426 26.4333C4.11847 26.4897 3.94687 27.0297 4.26536 27.3057L14.2088 35.9211C14.7168 36.3612 15.3899 36.5602 16.0664 36.4701L38.4577 33.488C38.8918 33.4302 39.0571 32.8701 38.7191 32.6025L32.0491 27.3209ZM34.1207 27.045L39.6447 31.4191C39.8982 31.6198 40.0809 31.8617 40.199 32.1237C40.0809 31.8616 39.8982 31.6196 39.6446 31.4188L34.1209 27.045L34.1207 27.045ZM2.74022 27.6423C2.35111 26.524 3.06094 25.1384 4.40119 24.9599L8.46485 24.4187L8.46456 24.4185L4.40109 24.9596C3.06073 25.1381 2.3509 26.5239 2.74022 27.6423Z" fill="#198CFF"/>
<path fill-rule="evenodd" clip-rule="evenodd" d="M32.0484 18.8073L16.2077 20.917C15.1254 21.0611 14.0483 20.7428 13.2356 20.0386L9.95827 17.199L4.5426 17.9203C4.11847 17.9767 3.94687 18.5168 4.26536 18.7927L14.2088 27.4081C14.7168 27.8482 15.3899 28.0472 16.0664 27.9571L38.4577 24.975C38.8918 24.9172 39.0571 24.3571 38.7191 24.0895L32.0484 18.8073ZM39.6446 22.906L39.6447 22.9061C39.6658 22.9228 39.6864 22.9398 39.7066 22.9571C39.6864 22.9398 39.6657 22.9227 39.6446 22.906ZM3.06704 19.7072C2.11246 18.5584 2.81571 16.6581 4.40119 16.4469L8.46552 15.9056L8.46539 15.9055L4.40109 16.4468C2.81556 16.658 2.11232 18.5584 3.06704 19.7072Z" fill="#389BFF"/>
<path fill-rule="evenodd" clip-rule="evenodd" d="M4.54216 9.40289L26.1291 6.52797C26.7707 6.44252 27.4109 6.61652 27.9106 7.01215L38.7218 15.573C39.0629 15.843 38.8961 16.4081 38.4581 16.4665L16.0668 19.4485C15.3891 19.5388 14.7148 19.3395 14.2059 18.8986L4.26244 10.2832C3.9411 10.0047 4.11424 9.45988 4.54216 9.40289Z" fill="#56ABFF"/>
</svg>
